{
	"asset":{
		"generator":"Khronos glTF Blender I/O v4.4.55",
		"version":"2.0"
	},
	"scene":0,
	"scenes":[
		{
			"name":"Scene",
			"nodes":[
				2
			]
		}
	],
	"nodes":[
		{
			"name":"Root"
		},
		{
			"mesh":0,
			"name":"RedComet",
			"skin":0
		},
		{
			"children":[
				1,
				0
			],
			"name":"Armature"
		}
	],
	"animations":[
		{
			"channels":[
				{
					"sampler":0,
					"target":{
						"node":0,
						"path":"translation"
					}
				},
				{
					"sampler":1,
					"target":{
						"node":0,
						"path":"rotation"
					}
				},
				{
					"sampler":2,
					"target":{
						"node":0,
						"path":"scale"
					}
				}
			],
			"name":"Idle",
			"samplers":[
				{
					"input":7,
					"interpolation":"LINEAR",
					"output":8
				},
				{
					"input":7,
					"interpolation":"LINEAR",
					"output":9
				},
				{
					"input":7,
					"interpolation":"LINEAR",
					"output":10
				}
			]
		}
	],
	"materials":[
		{
			"doubleSided":true,
			"name":"Material",
			"pbrMetallicRoughness":{
				"baseColorTexture":{
					"index":0
				},
				"metallicFactor":0,
				"roughnessFactor":0.5
			}
		}
	],
	"meshes":[
		{
			"name":"Cube.001",
			"primitives":[
				{
					"attributes":{
						"POSITION":0,
						"NORMAL":1,
						"TEXCOORD_0":2,
						"JOINTS_0":3,
						"WEIGHTS_0":4
					},
					"indices":5,
					"material":0
				}
			]
		}
	],
	"textures":[
		{
			"sampler":0,
			"source":0
		}
	],
	"images":[
		{
			"mimeType":"image/png",
			"name":"RedComet",
			"uri":"RedComet.png"
		}
	],
	"skins":[
		{
			"inverseBindMatrices":6,
			"joints":[
				0
			],
			"name":"Armature"
		}
	],
	"accessors":[
		{
			"bufferView":0,
			"componentType":5126,
			"count":188,
			"max":[
				0.7636407017707825,
				4.875539779663086,
				1.474350094795227
			],
			"min":[
				-0.7636407017707825,
				0.03403520584106445,
				-1
			],
			"type":"VEC3"
		},
		{
			"bufferView":1,
			"componentType":5126,
			"count":188,
			"type":"VEC3"
		},
		{
			"bufferView":2,
			"componentType":5126,
			"count":188,
			"type":"VEC2"
		},
		{
			"bufferView":3,
			"componentType":5121,
			"count":188,
			"type":"VEC4"
		},
		{
			"bufferView":4,
			"componentType":5126,
			"count":188,
			"type":"VEC4"
		},
		{
			"bufferView":5,
			"componentType":5123,
			"count":408,
			"type":"SCALAR"
		},
		{
			"bufferView":6,
			"componentType":5126,
			"count":1,
			"type":"MAT4"
		},
		{
			"bufferView":7,
			"componentType":5126,
			"count":1,
			"max":[
				0.041666666666666664
			],
			"min":[
				0.041666666666666664
			],
			"type":"SCALAR"
		},
		{
			"bufferView":8,
			"componentType":5126,
			"count":1,
			"type":"VEC3"
		},
		{
			"bufferView":9,
			"componentType":5126,
			"count":1,
			"type":"VEC4"
		},
		{
			"bufferView":10,
			"componentType":5126,
			"count":1,
			"type":"VEC3"
		}
	],
	"bufferViews":[
		{
			"buffer":0,
			"byteLength":2256,
			"byteOffset":0,
			"target":34962
		},
		{
			"buffer":0,
			"byteLength":2256,
			"byteOffset":2256,
			"target":34962
		},
		{
			"buffer":0,
			"byteLength":1504,
			"byteOffset":4512,
			"target":34962
		},
		{
			"buffer":0,
			"byteLength":752,
			"byteOffset":6016,
			"target":34962
		},
		{
			"buffer":0,
			"byteLength":3008,
			"byteOffset":6768,
			"target":34962
		},
		{
			"buffer":0,
			"byteLength":816,
			"byteOffset":9776,
			"target":34963
		},
		{
			"buffer":0,
			"byteLength":64,
			"byteOffset":10592
		},
		{
			"buffer":0,
			"byteLength":4,
			"byteOffset":10656
		},
		{
			"buffer":0,
			"byteLength":12,
			"byteOffset":10660
		},
		{
			"buffer":0,
			"byteLength":16,
			"byteOffset":10672
		},
		{
			"buffer":0,
			"byteLength":12,
			"byteOffset":10688
		}
	],
	"samplers":[
		{
			"magFilter":9729,
			"minFilter":9987
		}
	],
	"buffers":[
		{
			"byteLength":10700,
			"uri":"RedComet.bin"
		}
	]
}
